<svg xmlns="http://www.w3.org/2000/svg" version="1.1" xmlns:xlink="http://www.w3.org/1999/xlink" width="512" height="512" x="0" y="0" viewBox="0 0 512 512" style="enable-background:new 0 0 512 512" xml:space="preserve" class=""><g><path d="M354.9 479c-17.4 11.9-40.7 11.7-57.7 0-24.3-17.1-57.1-17.6-82.3-.1-18.2 12.5-41 11.8-57.9.1-11.9-8.4-26.5-13-41.1-13-5.9 0-10.7 4.8-10.7 10.7s4.8 10.7 10.7 10.7c10.2 0 20.5 3.2 28.9 9.2 24.1 16.7 56.5 17.7 82.3 0 17.2-12 40.7-12.1 57.9 0 24.7 17 56.9 17.3 82.2 0 5.6-3.9 6.3-11.7 1.6-16.4-3.8-3.9-9.7-4.2-13.9-1.2zM510.1 428.3c-3.4-4.8-10-6-14.8-2.7-17.3 12-40.5 12-57.8 0-5.4-3.8-11.1-6.6-16.9-8.7l55.2-80.8c10.6-15.5 5.6-37.6-12.2-46.6l-30.1-15.1v-115c0-17.6-14.4-32-32-32h-37V72.9c0-17.6-14.4-32-32-32h-31.7V13.3c0-5.9-4.8-10.7-10.7-10.7s-10.7 4.8-10.7 10.7v27.6h-46.8V13.3c0-5.9-4.8-10.7-10.7-10.7s-10.7 4.8-10.7 10.7v27.6h-31.7c-17.6 0-32 14.4-32 32v54.4h-37c-17.6 0-32 14.4-32 32v115l-30.2 15.1c-16.9 8.7-23 30.3-11.9 46.7l55.1 80.7c-6.9 2.6-10.2 4.4-16.9 8.7-17.3 12-40.6 12-57.9 0-4.8-3.4-11.5-2.2-14.8 2.7-3.4 4.8-2.2 11.5 2.7 14.8 24.6 17.1 57.7 17.1 82.2 0 18.6-12.9 41.6-11.5 57.9 0 24.1 16.7 56.5 17.7 82.3 0 17.2-12 40.7-12.1 57.9 0 12.3 8.4 26.5 12.9 41.1 12.9 44.7 0 52-40.5 99.6-12.6 24.5 16.8 57.3 16.7 81.7-.3 5-3.2 6.2-9.9 2.8-14.7zM168.9 72.9c0-5.9 4.8-10.7 10.7-10.7h152.9c5.9 0 10.7 4.8 10.7 10.7v54.5H168.9zm-69 86.5c0-5.9 4.8-10.7 10.7-10.7h290.9c5.9 0 10.7 4.8 10.7 10.7v104.4c-63.7-30.6-98.6-50.3-121.2-60.7-17.1-7.8-39.3-15.3-68.4-.8L99.9 263.7zm115 266.2c-18 12.4-40.9 11.9-57.9.1-11.9-8.4-26.9-13.3-42.5-13L54 324.2c-3.8-5.5-1.4-12.9 4-15.6l174.1-87.2c4.2-2.1 8.7-3.6 13.3-4.5v196.6c-11 1.6-21.3 5.7-30.5 12.1zm125.8 6.8c-14.8 4.4-31 1.9-43.6-6.8-9.2-6.5-19.5-10.6-30.5-12.2V216.8c4.6.9 9 2.4 13.2 4.5L454 308.5c5.5 2.7 7.9 9.8 4.1 15.6l-60.5 88.5c-32.2-.5-39 14.5-56.9 19.8z" fill="#ffffff" opacity="1" data-original="#000000"></path></g></svg>
