<svg xmlns="http://www.w3.org/2000/svg" version="1.1" xmlns:xlink="http://www.w3.org/1999/xlink" width="512" height="512" x="0" y="0" viewBox="0 0 512 512" style="enable-background:new 0 0 512 512" xml:space="preserve" class=""><g><path d="M478.21 222.21h-44.165c-4.711-24.88-14.526-47.978-28.31-68.159l31.284-31.283c6.382-6.383 9.897-14.868 9.897-23.894s-3.516-17.511-9.897-23.894c-6.383-6.382-14.868-9.897-23.894-9.897s-17.511 3.516-23.894 9.897l-31.284 31.284c-20.181-13.784-43.279-23.598-68.159-28.31V33.79C289.79 15.158 274.632 0 256 0s-33.79 15.158-33.79 33.79v44.164c-24.88 4.711-47.978 14.526-68.159 28.31L122.768 74.98c-6.383-6.382-14.868-9.897-23.894-9.897S81.363 68.599 74.98 74.98c-6.382 6.383-9.897 14.868-9.897 23.894s3.516 17.511 9.897 23.894l31.284 31.283c-13.784 20.181-23.599 43.279-28.31 68.159H33.79C15.158 222.21 0 237.368 0 256s15.158 33.79 33.79 33.79h44.165c4.711 24.88 14.526 47.978 28.31 68.159L74.98 389.232c-6.382 6.383-9.897 14.868-9.897 23.894s3.516 17.511 9.897 23.894c6.383 6.382 14.868 9.897 23.894 9.897s17.511-3.516 23.894-9.897l31.284-31.284c20.181 13.784 43.279 23.598 68.159 28.31v44.164c0 18.632 15.158 33.79 33.79 33.79s33.79-15.158 33.79-33.79v-44.164c24.88-4.711 47.978-14.526 68.159-28.31l31.284 31.284c6.383 6.382 14.868 9.897 23.894 9.897s17.511-3.516 23.894-9.897c6.382-6.383 9.897-14.868 9.897-23.894s-3.516-17.511-9.897-23.894l-31.284-31.283c13.784-20.181 23.599-43.279 28.31-68.159h44.165c18.632 0 33.79-15.158 33.79-33.79s-15.161-33.79-33.793-33.79zM403.375 89.123c2.604-2.605 6.067-4.04 9.751-4.04s7.146 1.435 9.751 4.04c2.605 2.604 4.04 6.067 4.04 9.751s-1.435 7.146-4.04 9.751l-29.424 29.423a182.733 182.733 0 0 0-19.502-19.501zM242.21 33.79c0-7.604 6.187-13.79 13.79-13.79s13.79 6.187 13.79 13.79v41.525a182.978 182.978 0 0 0-27.58 0zM89.123 108.625c-2.605-2.604-4.04-6.067-4.04-9.751s1.435-7.146 4.04-9.751c2.604-2.605 6.067-4.04 9.751-4.04s7.146 1.435 9.751 4.04l29.423 29.423a182.919 182.919 0 0 0-19.502 19.501zM33.79 269.79C26.187 269.79 20 263.604 20 256s6.187-13.79 13.79-13.79h41.525a182.978 182.978 0 0 0 0 27.58zm74.835 153.087c-2.604 2.605-6.067 4.04-9.751 4.04s-7.146-1.435-9.751-4.04c-2.605-2.604-4.04-6.067-4.04-9.751s1.435-7.146 4.04-9.751l29.424-29.423a182.733 182.733 0 0 0 19.502 19.501zM269.79 478.21c0 7.604-6.187 13.79-13.79 13.79s-13.79-6.187-13.79-13.79v-41.525a182.978 182.978 0 0 0 27.58 0zm153.087-74.835c2.605 2.604 4.04 6.067 4.04 9.751s-1.435 7.146-4.04 9.751c-2.604 2.605-6.067 4.04-9.751 4.04s-7.146-1.435-9.751-4.04l-29.423-29.423a182.919 182.919 0 0 0 19.502-19.501zM256 417.205c-88.889 0-161.205-72.316-161.205-161.205S167.111 94.795 256 94.795 417.205 167.111 417.205 256 344.889 417.205 256 417.205zM478.21 269.79h-41.525a182.978 182.978 0 0 0 0-27.58h41.525c7.604 0 13.79 6.187 13.79 13.79s-6.187 13.79-13.79 13.79z" fill="#ffffff" opacity="1" data-original="#000000" class=""></path><path d="M256 123.702c-72.949 0-132.298 59.349-132.298 132.298S183.051 388.298 256 388.298 388.298 328.949 388.298 256 328.949 123.702 256 123.702zm88.524 63.276-29.295 29.295a71.926 71.926 0 0 0-19.502-19.502l29.295-29.295a113.252 113.252 0 0 1 19.502 19.502zm11.018 120.972-18.06-18.16h25.622a111.52 111.52 0 0 1-7.562 18.16zm-29.539-38.16c.878-4.463 1.338-9.074 1.338-13.79s-.46-9.327-1.338-13.79h41.452c.556 4.52.843 9.122.843 13.79s-.287 9.27-.843 13.79zM256 307.341c-28.31 0-51.341-23.031-51.341-51.341S227.69 204.659 256 204.659 307.341 227.69 307.341 256 284.31 307.341 256 307.341zm-33.79 55.763a111.65 111.65 0 0 1-17.868-7.409l17.868-17.996zm-73.314-73.314h25.649l-18.068 18.198a111.658 111.658 0 0 1-7.581-18.198zm-4.351-20c-.556-4.52-.843-9.122-.843-13.79s.287-9.27.843-13.79h41.452c-.878 4.463-1.338 9.074-1.338 13.79s.46 9.327 1.338 13.79zm11.772-65.473 18.002 17.893h-25.424a111.712 111.712 0 0 1 7.422-17.893zm133.473-55.421a111.652 111.652 0 0 1 18.032 7.495l-18.032 18.032zm73.314 73.314h-25.527l18.032-18.032a111.525 111.525 0 0 1 7.495 18.032zm-93.314-77.665v41.452c-4.463-.878-9.074-1.338-13.79-1.338s-9.327.46-13.79 1.338v-41.452c4.52-.556 9.122-.843 13.79-.843s9.27.287 13.79.843zm-47.58 29.982-18.173-18.063a111.556 111.556 0 0 1 18.173-7.568zm-35.363-6.949 29.393 29.214a71.923 71.923 0 0 0-19.491 19.512l-29.375-29.197a113.347 113.347 0 0 1 19.473-19.529zm-19.251 157.598 29.2-29.41a71.909 71.909 0 0 0 19.514 19.489l-29.179 29.389a113.318 113.318 0 0 1-19.535-19.468zm74.614 42.279v-41.452c4.463.878 9.074 1.338 13.79 1.338s9.327-.46 13.79-1.338v41.452c-4.52.556-9.122.843-13.79.843s-9.27-.287-13.79-.843zm47.58-29.783 17.904 18.005a111.619 111.619 0 0 1-17.904 7.428zm35.113 6.945-29.205-29.368a71.909 71.909 0 0 0 19.511-19.492l29.221 29.384a113.211 113.211 0 0 1-19.527 19.476z" fill="#ffffff" opacity="1" data-original="#000000" class=""></path></g></svg>
