<svg xmlns="http://www.w3.org/2000/svg" version="1.1" xmlns:xlink="http://www.w3.org/1999/xlink" width="512" height="512" x="0" y="0" viewBox="0 0 479.996 479" style="enable-background:new 0 0 512 512" xml:space="preserve"><g><path d="M475.309 39.117c6.246-6.246 6.246-16.375 0-22.62L463.996 5.183c-6.246-6.247-16.375-6.247-22.625 0L239.996 206.559 38.621 5.184c-6.25-6.247-16.375-6.247-22.625 0L4.684 16.496c-6.246 6.246-6.246 16.375 0 22.621l201.379 201.38-40 40-62.403 14.398A40.013 40.013 0 0 0 84.38 305.59l-72.664 72.68c-15.594 15.632-15.594 40.937 0 56.57l33.937 33.933c15.633 15.594 40.938 15.594 56.567 0l72.707-72.703a40.012 40.012 0 0 0 10.672-19.289l14.398-62.398 40-40 40 40 14.402 62.398a39.978 39.978 0 0 0 10.696 19.281l72.703 72.704c15.633 15.593 40.937 15.593 56.566 0l33.938-33.934c15.594-15.633 15.594-40.937 0-56.57l-72.703-72.703a40.043 40.043 0 0 0-19.313-10.664l-62.367-14.399-40-40zm-110.93 65.68 11.312 11.312-24 24-11.328-11.293zm35.32-35.317 11.313 11.31-24 24-11.313-11.31zm52.985-52.984 11.312 11.313-41.672 41.671-11.312-11.312zM329.05 140.125l11.312 11.313-77.742 77.746-11.312-11.313zm-224.75-24 11.312-11.309 24 24-11.297 11.309zM68.98 80.809l11.312-11.313 24 24L92.98 104.81zm-52.985-53L27.31 16.496 68.98 58.168 57.668 69.48zM90.91 457.46c-9.375 9.375-24.574 9.375-33.945 0l-33.938-33.934c-9.375-9.375-9.375-24.57 0-33.945l16.97-16.969 67.878 67.883zm79.117-84.277a23.964 23.964 0 0 1-6.398 11.574l-44.434 44.426-67.886-67.891 44.425-44.422a24.01 24.01 0 0 1 11.567-6.402l60.281-13.91 16.36 16.359zm22.707-74.114-11.312-11.312 35.95-35.95 11.312 11.31zm264.23 90.512c9.376 9.375 9.376 24.57 0 33.945l-33.937 33.934c-9.37 9.375-24.57 9.375-33.941 0l-16.969-16.965 67.88-67.883zm-72.702-72.703 44.422 44.414-67.887 67.89-44.426-44.425a24.004 24.004 0 0 1-6.398-11.567l-13.91-60.28 16.359-16.36 60.27 13.91a24.032 24.032 0 0 1 11.57 6.418zm-97-17.809L139.629 151.438l11.312-11.313 147.633 147.633zm0 0" fill="#ffffff" opacity="1" data-original="#000000"></path></g></svg>
